<svg width="56" height="56" viewBox="0 0 56 56" fill="none" xmlns="http://www.w3.org/2000/svg">
<circle cx="28" cy="28" r="27.5" stroke="url(#paint0_linear_82_196)"/>
<path fill-rule="evenodd" clip-rule="evenodd" d="M15.4393 16.4393C15.7206 16.158 16.1022 16 16.5 16H40.5C40.8978 16 41.2794 16.158 41.5607 16.4393C41.842 16.7206 42 17.1022 42 17.5V32.5C42 32.8978 41.842 33.2794 41.5607 33.5607C41.2794 33.842 40.8978 34 40.5 34H39C38.1716 34 37.5 34.6716 37.5 35.5C37.5 36.3284 38.1716 37 39 37H40.5C41.6935 37 42.8381 36.5259 43.682 35.682C44.5259 34.8381 45 33.6935 45 32.5V17.5C45 16.3065 44.5259 15.1619 43.682 14.318C42.8381 13.4741 41.6935 13 40.5 13H16.5C15.3065 13 14.1619 13.4741 13.318 14.318C12.4741 15.1619 12 16.3065 12 17.5V32.5C12 33.6935 12.4741 34.8381 13.318 35.682C14.1619 36.5259 15.3065 37 16.5 37H18C18.8284 37 19.5 36.3284 19.5 35.5C19.5 34.6716 18.8284 34 18 34H16.5C16.1022 34 15.7206 33.842 15.4393 33.5607C15.158 33.2794 15 32.8978 15 32.5V17.5C15 17.1022 15.158 16.7206 15.4393 16.4393ZM29.6523 31.5397C29.3673 31.1977 28.9452 31 28.5 31C28.0548 31 27.6327 31.1977 27.3477 31.5397L19.8477 40.5397C19.4751 40.9868 19.3947 41.6092 19.6416 42.1362C19.8885 42.6633 20.418 43 21 43H36C36.582 43 37.1115 42.6633 37.3584 42.1362C37.6053 41.6092 37.5249 40.9868 37.1523 40.5397L29.6523 31.5397ZM28.5 34.8431L32.7974 40H24.2026L28.5 34.8431Z" fill="#EF952B"/>
<defs>
<linearGradient id="paint0_linear_82_196" x1="28" y1="0" x2="28" y2="56" gradientUnits="userSpaceOnUse">
<stop stop-color="#EF952B"/>
<stop offset="1" stop-color="#EF952B" stop-opacity="0.22"/>
</linearGradient>
</defs>
</svg>
