<svg width="229" height="196" viewBox="0 0 229 196" fill="none" xmlns="http://www.w3.org/2000/svg">
<path fill-rule="evenodd" clip-rule="evenodd" d="M43.2525 1.15067C42.7903 1.42554 41.1637 1.81123 39.6371 2.00842C38.1106 2.20561 36.8617 2.56197 36.8617 2.7999C36.8617 3.03837 36.1664 3.39744 35.3172 3.59735C32.4932 4.26334 25.9971 8.66562 23.5508 11.5719C20.0298 15.7552 17.1942 22.3483 17.1942 26.3524C17.1942 28.0707 16.913 28.3852 13.9837 29.9372C7.81912 33.2047 4.40565 36.9094 2.37931 42.534C0.432228 47.939 0.533457 51.6938 2.81431 58.6416C3.31352 60.1627 3.18568 60.7673 1.942 62.7598C0.0706921 65.7589 -0.473057 69.6636 0.418923 73.6998C1.01589 76.398 1.57179 77.297 4.13377 79.7029C6.74435 82.154 7.54783 82.5842 10.1463 82.9199C13.3752 83.3366 18.9295 82.8352 18.9295 82.1268C18.9295 81.8883 19.523 81.5532 20.2478 81.3826C22.0116 80.967 24.4677 78.7789 27.9274 74.5418C29.5008 72.615 31.1784 70.6317 31.6556 70.1341C33.9914 67.6982 39.0477 62.1612 40.6061 60.3316C41.5692 59.2017 43.6835 57.6318 45.3043 56.8425C49.8972 54.6077 54.1275 51.0588 56.2458 47.6636C57.6711 45.3799 57.7012 45.3653 62.4544 44.709C67.7241 43.9811 70.3717 42.9664 73.0043 40.6647C74.5395 39.3224 75.063 39.1752 77.3306 39.4474C78.7489 39.6179 80.1679 39.9998 80.4832 40.2959C80.7978 40.5914 81.8148 40.8337 82.7426 40.8337H84.43L84.0667 44.2288C83.0503 53.7195 83.2129 53.1936 81.2062 53.4951C75.6872 54.3257 71.5691 55.2296 71.5691 55.611C71.5691 55.8489 71.1087 56.0439 70.5458 56.0439C69.3421 56.0439 58.9281 60.7754 57.8001 61.8347C57.3738 62.2351 56.7647 62.5626 56.4465 62.5626C56.1284 62.5626 55.525 62.8685 55.1057 63.2416C54.6869 63.6154 53.6109 64.4096 52.7161 65.0071C48.4337 67.8656 40.2792 75.3039 36.8363 79.4922C33.723 83.2795 32.8756 83.9303 31.972 83.2263C31.4936 82.8536 29.4135 82.6765 26.6491 82.7738L22.1111 82.9335L25.8884 84.7147C27.9656 85.6942 30.4137 87.1 31.3288 87.8383C32.2439 88.5765 33.1937 89.1806 33.4396 89.1806C34.0412 89.1806 35.7048 87.5889 35.7048 87.0136C35.7048 86.0597 51.7778 71.334 55.5401 68.8412C60.3621 65.646 70.1531 60.9329 71.9683 60.9329C72.7035 60.9329 73.3045 60.7292 73.3045 60.4804C73.3045 60.0339 76.6613 59.2604 83.4275 58.1489C85.3364 57.8349 87.0723 57.4167 87.2846 57.2184C87.4975 57.0207 87.9811 54.292 88.36 51.1549C88.7389 48.0178 89.1721 44.463 89.3237 43.2548C89.5557 41.4003 89.8837 40.9516 91.4299 40.3725C94.9862 39.0394 96.8223 38.0393 98.8642 36.3222C101.053 34.4823 103.384 30.8753 103.384 29.3304C103.384 28.8208 103.645 28.2526 103.963 28.0679C104.281 27.8832 104.541 25.8521 104.541 23.5543C104.54 15.2642 100.258 8.76123 92.3936 5.10914C89.4267 3.73153 88.7048 3.63157 81.6921 3.62723C75.2423 3.62343 73.6782 3.79997 70.7014 4.86741L67.2307 6.11139L62.7164 3.91677C60.2337 2.70918 57.5809 1.7216 56.8214 1.7216C56.0619 1.7216 55.2798 1.47715 55.0831 1.17838C54.6348 0.497719 44.3921 0.473817 43.2525 1.15067ZM56.9122 6.43841C58.6105 6.94089 60 7.55202 60 7.79647C60 8.04037 60.4009 8.24028 60.8902 8.24028C62.138 8.24028 67.4297 13.4161 67.871 15.0691C68.4813 17.3523 69.5341 16.2121 69.714 13.0728C69.9147 9.57444 70.514 9.18657 77.2091 8.21909C81.6291 7.58081 89.5881 8.28537 89.9831 9.35009C90.0896 9.63636 90.546 9.86995 90.9978 9.86995C92.1044 9.86995 97.0629 14.5884 98.3228 16.84C99.0597 18.1574 99.3247 19.8571 99.2969 23.0871C99.2639 26.8598 99.0233 27.9213 97.6899 30.1697C96.6557 31.915 95.3414 33.2085 93.8276 33.9722C92.5654 34.6089 91.3564 35.358 91.1401 35.6372C90.4789 36.4917 81.89 36.2326 80.0129 35.3015C78.4979 34.5508 78.3238 34.1803 78.2393 31.5283C78.1508 28.7383 76.9407 25.0802 76.1065 25.0802C75.8937 25.0802 75.542 26.1188 75.3245 27.3889C74.3492 33.0797 70.1762 37.9459 64.947 39.4908C60.3777 40.8402 59.2017 40.5056 58.8089 37.7438C58.3572 34.566 56.5877 31.7244 54.6695 31.0964C53.7833 30.8063 53.0585 30.6477 53.0585 30.7439C53.0585 30.8405 53.449 31.9585 53.9262 33.2286C55.3822 37.1045 54.9084 40.0764 52.0624 44.9079C50.4439 47.6549 46.5937 50.8583 42.6463 52.7411C39.3803 54.2996 38.1453 54.5723 33.2464 54.819C30.1447 54.9749 27.6064 55.2845 27.6064 55.5067C27.6064 56.1222 28.9363 57.031 31.8997 58.4396L34.5884 59.7178L32.9774 61.5218C32.0912 62.5137 30.6335 64.0706 29.738 64.981C28.8426 65.8915 26.63 68.4387 24.8211 70.6414C23.0123 72.8442 21.2723 74.9427 20.9541 75.305C19.858 76.5533 14.8358 78.8593 13.2132 78.8593C9.63721 78.8593 6.32844 76.2833 5.0703 72.5194C4.44267 70.6403 4.44672 69.8299 5.09517 67.7662C5.95591 65.0288 6.41579 64.8045 8.19107 66.2538C9.63201 67.431 13.6563 68.7825 14.1995 68.2719C14.4141 68.0709 14.1995 67.6179 13.7223 67.2653C11.7729 65.8241 7.36041 58.8138 7.36041 57.1581C7.36041 56.6648 7.04457 55.9646 6.65816 55.6017C5.56372 54.574 5.80262 45.8389 6.98036 43.8214C7.50386 42.9251 7.93308 41.8864 7.93539 41.5127C7.93713 41.1395 8.19917 40.8337 8.51732 40.8337C8.83547 40.8337 9.09578 40.5572 9.09578 40.2188C9.09578 39.2904 13.7269 35.2412 16.1315 34.0673L18.2499 33.0325L19.74 34.6953C21.576 36.7443 23.5572 37.3831 23.5572 35.9257C23.5572 35.3737 23.2969 34.7713 22.9787 34.5866C22.2672 34.1738 22.1978 23.0887 22.9041 22.6792C23.1812 22.5184 23.5682 21.6335 23.7643 20.7121C24.4949 17.2833 31.0349 9.86995 33.3297 9.86995C33.6814 9.86995 33.9694 9.67276 33.9694 9.43103C33.9694 8.9519 36.8391 7.72585 40.9109 6.46611C44.6107 5.32209 53.0909 5.30687 56.9122 6.43841ZM80.5352 65.0761C78.6263 65.496 76.5439 66.0436 75.9076 66.2924C73.2148 67.3462 64.3986 71.5426 63.8005 72.0549C62.761 72.9458 59.4979 75.0567 59.1601 75.0567C58.887 75.0567 57.0047 76.4648 55.1508 78.0559C54.7956 78.3606 53.2239 79.5829 51.6581 80.772C48.5766 83.1122 41.0376 90.0687 39.1819 92.284C38.5508 93.038 36.9242 94.8138 35.5677 96.2305C32.0848 99.8679 30.9695 101.137 29.3528 103.304C28.5724 104.35 27.6648 105.503 27.3363 105.866C26.0966 107.236 25.4875 108.057 21.9664 113.11C19.9783 115.963 18.3511 118.59 18.3511 118.949C18.3511 119.308 18.1191 119.601 17.8351 119.601C17.5517 119.601 17.1404 120.271 16.9217 121.09C16.7031 121.908 16.3352 122.702 16.1044 122.855C15.7203 123.109 13.2103 129.235 11.3176 134.54C10.229 137.59 10.2498 152.001 11.346 154.15C11.7885 155.016 12.5694 156.538 13.0813 157.531C14.3754 160.04 18.6849 164.031 21.1832 165.034C26.8521 167.31 33.4153 167.999 38.2408 166.826C44.823 165.225 48.2741 164.019 53.7862 161.391C58.5718 159.11 59.4649 158.616 61.8187 156.948C62.9779 156.126 64.2146 155.454 64.5663 155.454C64.918 155.454 65.2061 155.247 65.2061 154.994C65.2061 154.741 65.7013 154.312 66.3069 154.043C68.2378 153.183 78.7854 144.796 84.0025 139.972C85.6181 138.478 89.2601 135.3 92.0951 132.91C94.9301 130.52 97.657 128.198 98.155 127.749C98.6525 127.301 100.358 125.957 101.944 124.762C103.531 123.567 105.146 122.344 105.533 122.046C107.339 120.651 107.859 120.303 109.816 119.176C112.12 117.85 113.799 117.648 114.79 118.579C115.267 119.026 114.98 119.884 113.699 121.838C112.744 123.297 111.724 124.49 111.433 124.49C111.142 124.49 110.904 124.761 110.904 125.091C110.904 125.421 110.171 126.583 109.274 127.671C106.758 130.726 105.605 133.536 105.575 136.686C105.522 142.255 108.97 144.781 114.782 143.429C116.308 143.074 117.687 142.64 117.846 142.464C118.005 142.289 119.436 141.313 121.027 140.297C122.618 139.28 124.191 138.18 124.522 137.852C124.853 137.524 126.088 136.415 127.265 135.388L129.406 133.52L131.495 135.811C134.301 138.89 136.602 139.7 142.539 139.7C146.9 139.7 147.892 139.497 151.805 137.799C154.215 136.753 156.28 135.898 156.395 135.898C156.798 135.898 156.595 137.555 156.078 138.486C154.407 141.493 153.421 146.815 153.421 152.823C153.421 159.107 153.435 159.172 155.228 161.243C157.017 163.31 157.074 163.331 161.16 163.331H165.286L168.608 160.027C171.725 156.929 175.691 150.685 175.691 148.875C175.691 148.43 175.924 147.833 176.209 147.55C177.25 146.511 179.081 137.814 179.127 133.68C179.146 132.012 179.323 130.495 179.52 130.311C179.716 130.127 181.213 130.452 182.846 131.035C184.479 131.618 186.378 132.095 187.068 132.095C189.162 132.095 193.49 130.075 194.502 128.625C195.723 126.875 195.408 125.248 193.891 125.474C190.249 126.015 185.543 125.692 183.048 124.728C181.549 124.149 180.323 123.492 180.321 123.268C180.32 123.044 179.929 122.86 179.451 122.86C177.584 122.86 178.799 121.203 183.875 116.828C190.509 111.11 189.605 111.957 195.188 106.231C197.798 103.553 200.769 100.272 201.788 98.9385C202.808 97.6049 203.817 96.3918 204.029 96.2425C204.788 95.709 206.464 92.1205 207.257 89.3267C208.157 86.1613 207.745 84.3736 205.632 82.2545C204.671 81.2919 203.777 81.0322 201.421 81.0322C193.925 81.0322 186.297 87.797 175.999 103.576C169.838 113.015 170.593 112.187 169.025 111.222C167.055 110.01 165.592 110.16 164.738 111.66C164.126 112.733 164.163 113.478 164.954 116.035C165.889 119.053 165.881 119.167 164.581 121.643C162.833 124.972 159.178 128.261 155.037 130.23C152.112 131.621 151.06 131.824 146.769 131.824C142.7 131.824 141.627 131.639 140.55 130.752C138.713 129.239 138.919 128.836 141.528 128.836C142.782 128.836 143.948 128.623 144.119 128.364C144.289 128.105 145.476 127.735 146.756 127.543C148.035 127.351 149.082 127.012 149.082 126.789C149.082 126.567 149.878 126.054 150.851 125.649C153.31 124.628 156.426 121.477 157.224 119.208C157.591 118.162 157.775 115.984 157.633 114.368C157.362 111.312 156.277 109.824 153.228 108.329C151.636 107.549 144.928 107.415 143.434 108.133C142.882 108.399 141.443 109.071 140.236 109.627C134.591 112.228 129.636 119.007 128.859 125.194C128.423 128.67 127.7 129.544 122.369 133.046C119.453 134.962 116.468 135.383 115.887 133.962C115.53 133.088 116.66 130.585 117.997 129.295C118.413 128.893 120.027 126.754 121.585 124.541C123.983 121.135 124.423 120.106 124.457 117.828C124.494 115.402 124.301 114.983 122.495 113.567C120.898 112.314 119.93 111.996 117.715 111.996C116.187 111.996 114.485 112.228 113.933 112.513C113.381 112.797 111.888 113.457 110.615 113.979C109.342 114.501 106.635 116.102 104.6 117.536C97.86 122.285 99.0331 120.614 107.773 113.016C111.358 109.9 117.423 103.8 119.59 101.131C120.682 99.787 121.713 98.5647 121.88 98.4154C122.816 97.5793 125.512 92.4931 126.458 89.7786C128.3 84.4904 125.816 79.4025 121.392 79.4025C120.261 79.4025 116.489 80.8242 115.243 81.7199C113.437 83.0177 111.506 84.8739 109.457 87.2793C108.185 88.7731 106.949 90.0769 106.71 90.1763C106.472 90.2762 106.277 90.6864 106.277 91.0884C106.277 91.4903 105.951 92.1422 105.553 92.5371C104.52 93.5633 102.282 97.4837 97.2364 107.107C94.8081 111.738 92.0754 116.935 91.1626 118.656C89.0513 122.639 82.5245 132.095 81.8865 132.095C81.6204 132.095 81.4006 132.401 81.3977 132.774C81.3913 133.656 71.55 143.224 67.8092 145.985C66.2184 147.159 64.7867 148.243 64.6276 148.392C64.1591 148.832 62.2056 149.894 59.4215 151.223C57.9898 151.906 56.6854 152.629 56.5235 152.83C56.3609 153.03 55.4498 153.37 54.4989 153.585C53.5473 153.799 52.509 154.163 52.1908 154.394C50.4115 155.687 37.4136 157.078 36.1097 156.116C35.7279 155.834 34.7064 155.445 33.8399 155.25C31.3762 154.698 27.8945 151.009 26.7549 147.743C25.5691 144.346 25.4181 136.459 26.479 133.342C28.5325 127.309 29.7467 124.402 31.6492 120.959C34.0059 116.694 40.7281 106.434 42.0834 105.033C42.5693 104.53 43.5556 103.335 44.2746 102.377C49.7544 95.0756 62.6829 82.8064 70.945 77.0667C77.7309 72.352 83.3228 70.5583 85.3364 72.4493C86.1301 73.1946 86.2891 79.1885 85.5267 79.6307C85.2496 79.7915 84.8615 80.6807 84.6648 81.6064C84.2547 83.5305 77.968 92.7273 74.8449 95.9708C73.6944 97.1659 72.7469 98.3187 72.7393 98.5327C72.7318 98.7462 71.9382 99.6778 70.9756 100.603C68.0214 103.441 66.2774 106.495 66.1739 109.011C66.0038 113.138 68.9591 114.742 72.9262 112.675C75.6148 111.274 81.9738 104.937 83.2829 102.354C83.6236 101.681 84.1211 101.131 84.3883 101.131C84.655 101.131 84.8736 100.785 84.8736 100.362C84.8736 99.9385 85.0692 99.511 85.3075 99.4111C85.8773 99.1731 87.792 96.4869 89.2109 93.9338C89.8333 92.8136 90.5437 91.8967 90.7895 91.8967C91.0354 91.8967 91.2367 91.5066 91.2367 91.0297C91.2367 90.5533 91.6028 89.5141 92.05 88.721C94.1087 85.0722 94.9156 81.7504 94.9081 76.958C94.8971 69.8999 93.0229 66.7492 87.8093 65.0212C84.935 64.069 85.1195 64.0679 80.5352 65.0761ZM120.738 89.9633C120.738 90.6929 120.507 91.4235 120.224 91.5881C119.941 91.7522 119.53 92.5583 119.31 93.3802C119.091 94.2016 118.723 94.9979 118.492 95.1506C118.262 95.3027 117.481 96.3446 116.756 97.4647C116.03 98.5854 115.199 99.5018 114.906 99.5018C114.614 99.5018 114.375 99.7669 114.375 100.091C114.375 100.647 107.807 108.018 106.566 108.855C105.271 109.728 105.724 107.97 107.82 103.986C109.039 101.669 110.232 99.6919 110.47 99.5925C110.709 99.4926 110.904 99.1579 110.904 98.8483C110.904 97.9221 114.767 92.2411 116.666 90.3751C118.835 88.243 120.738 88.0507 120.738 89.9633ZM199.032 91.0645C199.211 91.5028 199.108 92.0064 198.804 92.1829C198.5 92.3595 198.251 92.8734 198.251 93.3248C198.251 94.0245 195.225 98.6842 194.24 99.5018C194.06 99.6512 192.872 100.993 191.599 102.485C188.188 106.483 177.534 116.623 177.137 116.25C176.829 115.961 178.035 113.537 179.915 110.666C182.451 106.792 189.429 96.8688 190.248 95.9708C190.794 95.3733 191.79 94.2814 192.463 93.5448C195.078 90.6826 198.368 89.4402 199.032 91.0645ZM149.699 114.731C153.602 116.693 147.244 123.667 141.273 123.973C136.809 124.202 136.553 123.63 139.337 119.636C142.329 115.344 146.752 113.25 149.699 114.731ZM172.984 129.697C173.322 131.65 172.053 139.196 171.117 140.805C170.85 141.263 170.448 142.423 170.224 143.385C169.999 144.346 169.604 145.133 169.345 145.133C169.087 145.133 168.727 145.689 168.545 146.369C168.124 147.943 164.276 152.194 163.272 152.194C160.982 152.194 161.85 145.696 165.061 138.803C165.499 137.862 165.858 136.701 165.858 136.223C165.858 135.745 166.097 135.355 166.39 135.355C166.683 135.355 167.093 134.624 167.302 133.731C167.511 132.838 167.922 131.968 168.216 131.798C168.51 131.627 168.75 131.082 168.75 130.587C168.75 129.591 171.544 127.085 172.218 127.476C172.452 127.612 172.797 128.612 172.984 129.697ZM125.944 147.592C125.467 147.681 122.734 148.047 119.87 148.408C114.015 149.144 105.404 150.707 100.203 151.978C98.2938 152.445 95.5606 153.099 94.129 153.432C92.6973 153.765 91.3957 154.203 91.2367 154.406C91.0776 154.609 90.045 154.958 88.9419 155.183C87.8388 155.408 86.5373 155.785 86.0496 156.019C85.562 156.255 83.7312 156.97 81.9814 157.609C77.3751 159.292 77.0546 159.426 70.7014 162.322C67.5199 163.773 64.8301 165.143 64.7243 165.368C64.6178 165.592 64.2152 165.775 63.8294 165.775C62.5834 165.775 54.5712 171.028 52.3077 173.329C49.5548 176.127 48.7085 180.259 50.5069 182.125C51.875 183.544 55.0062 184.788 57.2141 184.788C60.8035 184.788 69.1471 181.28 72.4802 178.37C74.0837 176.97 85.2751 169.956 88.3426 168.428C89.7737 167.716 91.0753 167.011 91.2349 166.861C91.6161 166.504 95.8528 164.59 100.203 162.81C102.112 162.028 104.073 161.184 104.56 160.935C105.048 160.685 106.341 160.297 107.433 160.071C108.526 159.846 109.819 159.464 110.307 159.223C113.522 157.63 126.746 154.615 134.042 153.809C146.279 152.459 149.911 150.877 147.017 148.159C146.257 147.446 144.521 147.316 136.46 147.368C131.153 147.403 126.421 147.504 125.944 147.592Z" fill="#FB952F"/>
<path d="M104.653 181.645V166.945H106.853C107.546 166.945 108.133 167.059 108.613 167.285C109.093 167.512 109.479 167.899 109.773 168.445C110.066 168.992 110.276 169.742 110.403 170.695C110.536 171.649 110.603 172.852 110.603 174.305C110.603 175.765 110.536 176.972 110.403 177.925C110.276 178.872 110.066 179.619 109.773 180.165C109.479 180.705 109.093 181.089 108.613 181.315C108.133 181.535 107.546 181.645 106.853 181.645H104.653ZM106.813 179.485C107.346 179.485 107.723 179.275 107.943 178.855C108.163 178.435 108.296 177.835 108.343 177.055C108.389 176.275 108.413 175.349 108.413 174.275C108.413 173.189 108.389 172.262 108.343 171.495C108.296 170.722 108.159 170.132 107.933 169.725C107.713 169.312 107.339 169.105 106.813 169.105V179.485ZM112.094 181.645V166.945H117.034V169.165H114.254V173.125H116.254V175.285H114.254V179.425H117.034V181.645H112.094ZM121.723 181.645V166.945H123.883C124.703 166.945 125.386 167.125 125.933 167.485C126.486 167.845 126.9 168.355 127.173 169.015C127.446 169.675 127.583 170.452 127.583 171.345C127.583 172.239 127.44 173.009 127.153 173.655C126.866 174.302 126.446 174.809 125.893 175.175C125.346 175.535 124.676 175.732 123.883 175.765V181.645H121.723ZM123.883 173.565C124.263 173.565 124.563 173.492 124.783 173.345C125.003 173.192 125.16 172.952 125.253 172.625C125.353 172.299 125.403 171.879 125.403 171.365C125.403 170.845 125.353 170.422 125.253 170.095C125.16 169.769 125 169.529 124.773 169.375C124.553 169.222 124.256 169.145 123.883 169.145V173.565ZM128.754 181.645V166.945H130.914C132.208 166.945 133.161 167.305 133.774 168.025C134.388 168.739 134.694 169.792 134.694 171.185C134.694 172.012 134.548 172.729 134.254 173.335C133.968 173.935 133.618 174.375 133.204 174.655L134.674 181.645H132.514L131.294 175.445H130.914V181.645H128.754ZM130.914 173.445C131.314 173.445 131.631 173.359 131.864 173.185C132.098 173.005 132.264 172.752 132.364 172.425C132.464 172.099 132.514 171.712 132.514 171.265C132.514 170.565 132.398 170.029 132.164 169.655C131.938 169.275 131.521 169.085 130.914 169.085V173.445ZM135.903 181.645V166.945H138.063V181.645H135.903ZM139.672 181.645V166.945H142.412L143.592 174.565L143.692 175.345H143.732L143.832 174.565L145.012 166.945H147.752V181.645H145.752V171.785H145.632L145.552 172.405L144.272 181.645H143.152L141.872 172.405L141.792 171.785H141.672V181.645H139.672ZM149.36 181.645V166.945H154.3V169.165H151.52V173.125H153.52V175.285H151.52V179.425H154.3V181.645H149.36ZM155.903 181.645V166.945H158.063V181.645H155.903ZM159.672 181.645V166.945H161.832C163.126 166.945 164.079 167.305 164.692 168.025C165.306 168.739 165.612 169.792 165.612 171.185C165.612 172.012 165.466 172.729 165.172 173.335C164.886 173.935 164.536 174.375 164.122 174.655L165.592 181.645H163.432L162.212 175.445H161.832V181.645H159.672ZM161.832 173.445C162.232 173.445 162.549 173.359 162.782 173.185C163.016 173.005 163.182 172.752 163.282 172.425C163.382 172.099 163.432 171.712 163.432 171.265C163.432 170.565 163.316 170.029 163.082 169.655C162.856 169.275 162.439 169.085 161.832 169.085V173.445ZM166.371 181.645L168.591 166.945H171.231L173.451 181.645H171.351L170.951 178.645H168.871L168.471 181.645H166.371ZM169.171 176.365H170.651L170.031 171.425L169.971 170.645H169.851L169.791 171.425L169.171 176.365Z" fill="#6A6050" fill-opacity="0.88"/>
</svg>
